<svg xmlns="http://www.w3.org/2000/svg" xmlns:xlink="http://www.w3.org/1999/xlink" width="34" zoomAndPan="magnify" viewBox="0 0 375 374.999991" height="34" preserveAspectRatio="xMidYMid meet" version="1.0"><path fill="#ffffff" d="M 263.796875 115.152344 L 231.886719 265.21875 C 230.308594 272.640625 221.460938 275.957031 215.300781 271.535156 L 139.320312 214.984375 L 223.199219 139.164062 C 223.199219 139.164062 228.886719 134.582031 227.304688 133.160156 C 225.570312 131.421875 219.40625 135.214844 216.089844 137.425781 C 212.933594 139.636719 113.417969 202.507812 113.417969 202.507812 L 63.183594 186.710938 C 57.496094 184.972656 57.496094 177.234375 65.710938 173.757812 L 251.160156 102.359375 C 259.054688 98.410156 265.53125 107.570312 263.796875 115.152344 Z M 263.796875 115.152344 " fill-opacity="1" fill-rule="nonzero"/><path fill="#ffffff" d="M 187.5 375 C 84.191406 375 0 290.964844 0 187.5 C 0 84.191406 84.191406 0 187.5 0 C 290.964844 0 375 84.191406 375 187.5 C 375 290.964844 290.964844 375 187.5 375 Z M 187.5 10.265625 C 89.722656 10.265625 10.265625 89.722656 10.265625 187.5 C 10.265625 285.277344 89.722656 364.734375 187.5 364.734375 C 285.277344 364.734375 364.734375 285.277344 364.734375 187.5 C 364.734375 89.722656 285.277344 10.265625 187.5 10.265625 Z M 187.5 10.265625 " fill-opacity="1" fill-rule="nonzero"/></svg>